<?xml version="1.0" encoding="iso-8859-1"?>
<!-- Generator: Adobe Illustrator 19.0.0, SVG Export Plug-In . SVG Version: 6.00 Build 0)  -->
<svg version="1.1" id="Layer_1" xmlns="http://www.w3.org/2000/svg" xmlns:xlink="http://www.w3.org/1999/xlink" x="0px" y="0px"
	 viewBox="0 0 512 512" style="enable-background:new 0 0 512 512;" xml:space="preserve">
<rect x="229.517" y="88.276" style="fill:#FF6464;" width="52.966" height="26.483"/>
<rect x="229.517" y="52.966" style="fill:#B4E1FA;" width="52.966" height="26.483"/>
<rect x="229.517" y="35.31" style="fill:#A0D2F0;" width="52.966" height="17.655"/>
<path style="fill:#D2555A;" d="M286.897,88.276h-61.793c-2.438,0-4.414-1.976-4.414-4.414v-8.828c0-2.438,1.976-4.414,4.414-4.414
	h61.793c2.438,0,4.414,1.976,4.414,4.414v8.828C291.31,86.3,289.334,88.276,286.897,88.276z"/>
<polygon style="fill:#EDEDEE;" points="300.138,167.724 300.138,114.759 211.862,114.759 211.862,167.724 194.207,388.414 
	317.793,388.414 "/>
<g>
	<polygon style="fill:#FF6464;" points="300.138,151.172 300.138,115.862 211.862,148.966 211.862,167.724 210.497,184.788 	"/>
	<polygon style="fill:#FF6464;" points="312.565,323.064 195.936,366.801 194.207,388.414 232.46,388.414 315.308,357.346 	"/>
	<polygon style="fill:#FF6464;" points="304.338,220.218 301.594,185.937 207.585,221.191 204.672,257.592 	"/>
	<polygon style="fill:#FF6464;" points="309.823,288.781 307.081,254.5 201.76,293.995 198.848,330.398 	"/>
</g>
<path style="fill:#D2555A;" d="M331.034,379.586H180.966c-2.438,0-4.414,1.976-4.414,4.414v57.379h158.897V384
	C335.448,381.562,333.472,379.586,331.034,379.586z"/>
<path style="fill:#FF6464;" d="M291.31,379.586l-31.362-15.681c-2.485-1.242-5.41-1.242-7.895,0l-31.363,15.681v61.793h70.621
	V379.586z"/>
<path style="fill:#D2555A;" d="M273.655,441.379h-35.31v-48.552c0-2.438,1.976-4.414,4.414-4.414h26.483
	c2.438,0,4.414,1.976,4.414,4.414V441.379z"/>
<rect x="132.414" y="441.379" style="fill:#EBDFD4;" width="247.172" height="61.793"/>
<rect x="132.414" y="441.379" style="fill:#E1D4C8;" width="123.586" height="61.793"/>
<path style="fill:#A7A5AC;" d="M392.828,512H119.172c-2.438,0-4.414-1.976-4.414-4.414v-8.828c0-2.438,1.976-4.414,4.414-4.414
	h273.655c2.438,0,4.414,1.976,4.414,4.414v8.828C397.241,510.024,395.265,512,392.828,512z"/>
<path style="fill:#F5EBE1;" d="M384,450.207H128c-2.438,0-4.414-1.976-4.414-4.414v-8.828c0-2.438,1.976-4.414,4.414-4.414h256
	c2.438,0,4.414,1.976,4.414,4.414v8.828C388.414,448.231,386.438,450.207,384,450.207z"/>
<path style="fill:#EBDFD4;" d="M256,432.552H128c-2.438,0-4.414,1.976-4.414,4.414v8.828c0,2.438,1.976,4.414,4.414,4.414h128
	V432.552z"/>
<path style="fill:#D2555A;" d="M304.552,123.586h-97.103c-2.438,0-4.414-1.976-4.414-4.414v-8.828c0-2.438,1.976-4.414,4.414-4.414
	h97.103c2.438,0,4.414,1.976,4.414,4.414v8.828C308.966,121.61,306.989,123.586,304.552,123.586z"/>
<path style="fill:#FF6464;" d="M264.828,10.45V8.828C264.828,3.953,260.875,0,256,0s-8.828,3.953-8.828,8.828v1.622
	c-10.262,3.648-17.655,13.347-17.655,24.861h52.966C282.483,23.796,275.09,14.098,264.828,10.45z"/>
<path style="fill:#625D6B;" d="M260.414,353.103h-8.828c-2.438,0-4.414-1.976-4.414-4.414v-17.655c0-2.438,1.976-4.414,4.414-4.414
	h8.828c2.438,0,4.414,1.976,4.414,4.414v17.655C264.828,351.127,262.851,353.103,260.414,353.103z"/>
<g>
	<path style="fill:#504B5A;" d="M260.414,326.621h-8.828c-2.438,0-4.414,1.976-4.414,4.414v17.655c0-2.438,1.976-4.414,4.414-4.414
		h8.828c2.438,0,4.414,1.976,4.414,4.414v-17.655C264.828,328.597,262.851,326.621,260.414,326.621z"/>
	<path style="fill:#504B5A;" d="M258.207,291.31h-4.414c-2.438,0-4.414-1.976-4.414-4.414v-8.828c0-2.438,1.976-4.414,4.414-4.414
		h4.414c2.438,0,4.414,1.976,4.414,4.414v8.828C262.621,289.334,260.644,291.31,258.207,291.31z"/>
	<path style="fill:#504B5A;" d="M258.207,238.345h-4.414c-2.438,0-4.414-1.976-4.414-4.414v-8.828c0-2.438,1.976-4.414,4.414-4.414
		h4.414c2.438,0,4.414,1.976,4.414,4.414v8.828C262.621,236.369,260.644,238.345,258.207,238.345z"/>
</g>
<path style="fill:#DCDBDE;" d="M300.138,158.897H279.54l-47.081,17.655h67.679c2.438,0,4.414-1.976,4.414-4.414v-8.828
	C304.552,160.873,302.575,158.897,300.138,158.897z"/>
<path style="fill:#D2555A;" d="M211.862,158.897c-2.438,0-4.414,1.976-4.414,4.414v8.828c0,2.438,1.976,4.414,4.414,4.414h20.598
	l47.081-17.655H211.862z"/>
<g>
</g>
<g>
</g>
<g>
</g>
<g>
</g>
<g>
</g>
<g>
</g>
<g>
</g>
<g>
</g>
<g>
</g>
<g>
</g>
<g>
</g>
<g>
</g>
<g>
</g>
<g>
</g>
<g>
</g>
</svg>
