<?xml version="1.0" encoding="iso-8859-1"?>
<!-- Generator: Adobe Illustrator 19.0.0, SVG Export Plug-In . SVG Version: 6.00 Build 0)  -->
<svg version="1.1" id="Layer_1" xmlns="http://www.w3.org/2000/svg" xmlns:xlink="http://www.w3.org/1999/xlink" x="0px" y="0px"
	 viewBox="0 0 512 512" style="enable-background:new 0 0 512 512;" xml:space="preserve">
<rect x="211.862" y="44.138" style="fill:#B4E1FA;" width="88.276" height="70.621"/>
<rect x="211.862" y="44.138" style="fill:#A0D2F0;" width="88.276" height="26.483"/>
<g>
	<path style="fill:#EDEDEE;" d="M335.448,132.414H176.552v-22.069c0-2.438,1.976-4.414,4.414-4.414h150.069
		c2.438,0,4.414,1.976,4.414,4.414V132.414z"/>
	<polygon style="fill:#EDEDEE;" points="370.759,485.517 141.241,485.517 167.724,132.414 344.276,132.414 	"/>
</g>
<g>
	<polygon style="fill:#FF6464;" points="351.559,229.517 348.91,194.207 163.09,194.207 160.441,229.517 	"/>
	<polygon style="fill:#FF6464;" points="356.855,300.138 354.207,264.828 157.793,264.828 155.145,300.138 	"/>
	<polygon style="fill:#FF6464;" points="346.262,158.897 344.276,132.414 167.724,132.414 165.738,158.897 	"/>
	<polygon style="fill:#FF6464;" points="367.448,441.379 364.8,406.069 147.2,406.069 144.552,441.379 	"/>
	<polygon style="fill:#FF6464;" points="362.152,370.759 359.503,335.448 152.497,335.448 149.848,370.759 	"/>
</g>
<path style="fill:#736F7B;" d="M379.586,503.172H132.414v-22.069c0-2.438,1.976-4.414,4.414-4.414h238.345
	c2.438,0,4.414,1.976,4.414,4.414V503.172z"/>
<path style="fill:#A7A5AC;" d="M392.828,512H119.172c-2.438,0-4.414-1.976-4.414-4.414v-8.828c0-2.438,1.976-4.414,4.414-4.414
	h273.655c2.438,0,4.414,1.976,4.414,4.414v8.828C397.241,510.024,395.265,512,392.828,512z"/>
<g>
	<path style="fill:#D2555A;" d="M348.69,141.241H163.31c-2.438,0-4.414-1.976-4.414-4.414V128c0-2.438,1.976-4.414,4.414-4.414
		H348.69c2.438,0,4.414,1.976,4.414,4.414v8.828C353.103,139.265,351.127,141.241,348.69,141.241z"/>
	<path style="fill:#D2555A;" d="M370.759,423.724H141.241c-2.438,0-4.414-1.976-4.414-4.414v-8.828c0-2.438,1.976-4.414,4.414-4.414
		h229.517c2.438,0,4.414,1.976,4.414,4.414v8.828C375.172,421.748,373.196,423.724,370.759,423.724z"/>
	<path style="fill:#D2555A;" d="M353.103,211.862H158.897c-2.438,0-4.414-1.976-4.414-4.414v-8.828c0-2.438,1.976-4.414,4.414-4.414
		h194.207c2.438,0,4.414,1.976,4.414,4.414v8.828C357.517,209.886,355.541,211.862,353.103,211.862z"/>
	<path style="fill:#D2555A;" d="M305.8,40.789L264.828,23.96V8.828C264.828,3.972,260.855,0,256,0s-8.828,3.972-8.828,8.828V23.96
		L206.2,40.788c-6.413,2.635-4.53,12.178,2.402,12.178h94.794C310.329,52.966,312.213,43.423,305.8,40.789z"/>
</g>
<path style="fill:#625D6B;" d="M251.586,185.379h8.828c2.438,0,4.414-1.976,4.414-4.414v-26.483c0-2.438-1.976-4.414-4.414-4.414
	h-8.828c-2.438,0-4.414,1.976-4.414,4.414v26.483C247.172,183.403,249.149,185.379,251.586,185.379z"/>
<path style="fill:#504B5A;" d="M260.414,150.069h-8.828c-2.438,0-4.414,1.976-4.414,4.414v17.655c0-2.438,1.976-4.414,4.414-4.414
	h8.828c2.438,0,4.414,1.976,4.414,4.414v-17.655C264.828,152.045,262.851,150.069,260.414,150.069z"/>
<path style="fill:#625D6B;" d="M251.586,282.483h8.828c2.438,0,4.414-1.976,4.414-4.414v-26.483c0-2.438-1.976-4.414-4.414-4.414
	h-8.828c-2.438,0-4.414,1.976-4.414,4.414v26.483C247.172,280.506,249.149,282.483,251.586,282.483z"/>
<path style="fill:#504B5A;" d="M260.414,247.172h-8.828c-2.438,0-4.414,1.976-4.414,4.414v17.655c0-2.438,1.976-4.414,4.414-4.414
	h8.828c2.438,0,4.414,1.976,4.414,4.414v-17.655C264.828,249.149,262.851,247.172,260.414,247.172z"/>
<path style="fill:#625D6B;" d="M251.586,379.586h8.828c2.438,0,4.414-1.976,4.414-4.414V348.69c0-2.438-1.976-4.414-4.414-4.414
	h-8.828c-2.438,0-4.414,1.976-4.414,4.414v26.483C247.172,377.61,249.149,379.586,251.586,379.586z"/>
<path style="fill:#504B5A;" d="M260.414,344.276h-8.828c-2.438,0-4.414,1.976-4.414,4.414v17.655c0-2.438,1.976-4.414,4.414-4.414
	h8.828c2.438,0,4.414,1.976,4.414,4.414V348.69C264.828,346.252,262.851,344.276,260.414,344.276z"/>
<path style="fill:#625D6B;" d="M251.586,467.862h8.828c2.438,0,4.414-1.976,4.414-4.414v-26.483c0-2.438-1.976-4.414-4.414-4.414
	h-8.828c-2.438,0-4.414,1.976-4.414,4.414v26.483C247.172,465.886,249.149,467.862,251.586,467.862z"/>
<path style="fill:#504B5A;" d="M260.414,432.552h-8.828c-2.438,0-4.414,1.976-4.414,4.414v17.655c0-2.438,1.976-4.414,4.414-4.414
	h8.828c2.438,0,4.414,1.976,4.414,4.414v-17.655C264.828,434.528,262.851,432.552,260.414,432.552z"/>
<g>
</g>
<g>
</g>
<g>
</g>
<g>
</g>
<g>
</g>
<g>
</g>
<g>
</g>
<g>
</g>
<g>
</g>
<g>
</g>
<g>
</g>
<g>
</g>
<g>
</g>
<g>
</g>
<g>
</g>
</svg>
