<?xml version="1.0" encoding="UTF-8" standalone="no"?>
<!-- Generator: Adobe Illustrator 19.0.0, SVG Export Plug-In . SVG Version: 6.00 Build 0)  -->

<svg
   xmlns:dc="http://purl.org/dc/elements/1.1/"
   xmlns:cc="http://creativecommons.org/ns#"
   xmlns:rdf="http://www.w3.org/1999/02/22-rdf-syntax-ns#"
   xmlns:svg="http://www.w3.org/2000/svg"
   xmlns="http://www.w3.org/2000/svg"
   xmlns:sodipodi="http://sodipodi.sourceforge.net/DTD/sodipodi-0.dtd"
   xmlns:inkscape="http://www.inkscape.org/namespaces/inkscape"
   version="1.1"
   id="Capa_1"
   x="0px"
   y="0px"
   viewBox="0 0 33 33"
   style="enable-background:new 0 0 33 33;"
   xml:space="preserve"
   sodipodi:docname="004-message.svg"
   inkscape:version="0.92.2 (5c3e80d, 2017-08-06)"><metadata
     id="metadata2839"><rdf:RDF><cc:Work
         rdf:about=""><dc:format>image/svg+xml</dc:format><dc:type
           rdf:resource="http://purl.org/dc/dcmitype/StillImage" /><dc:title></dc:title></cc:Work></rdf:RDF></metadata><defs
     id="defs2837" /><sodipodi:namedview
     pagecolor="#ffffff"
     bordercolor="#666666"
     borderopacity="1"
     objecttolerance="10"
     gridtolerance="10"
     guidetolerance="10"
     inkscape:pageopacity="0"
     inkscape:pageshadow="2"
     inkscape:window-width="1920"
     inkscape:window-height="986"
     id="namedview2835"
     showgrid="false"
     inkscape:zoom="7.1515152"
     inkscape:cx="16.5"
     inkscape:cy="16.5"
     inkscape:window-x="-11"
     inkscape:window-y="-11"
     inkscape:window-maximized="1"
     inkscape:current-layer="Capa_1" /><g
     id="g2802"><path
       d="M7.282,32.706c-0.081,0-0.163-0.02-0.237-0.06c-0.162-0.087-0.263-0.257-0.263-0.44v-7.124C2.405,22.806,0,18.821,0,13.828   C0,6.112,7.093,0.294,16.5,0.294S33,6.112,33,13.828c0,7.715-7.093,13.533-16.5,13.533c-0.309,0-0.612-0.017-0.916-0.033   l-0.02-0.001l-8.007,5.296C7.474,32.678,7.378,32.706,7.282,32.706z M16.5,1.294C7.664,1.294,1,6.683,1,13.828   c0,3.323,1.128,7.842,6.503,10.499c0.17,0.084,0.278,0.258,0.278,0.448v6.501l7.369-4.874c0.09-0.06,0.199-0.095,0.302-0.082   l0.186,0.01c0.286,0.016,0.571,0.031,0.861,0.031c8.836,0,15.5-5.388,15.5-12.533S25.336,1.294,16.5,1.294z"
       id="path2800"
       style="fill:#ffffff" /></g><g
     id="g2804" /><g
     id="g2806" /><g
     id="g2808" /><g
     id="g2810" /><g
     id="g2812" /><g
     id="g2814" /><g
     id="g2816" /><g
     id="g2818" /><g
     id="g2820" /><g
     id="g2822" /><g
     id="g2824" /><g
     id="g2826" /><g
     id="g2828" /><g
     id="g2830" /><g
     id="g2832" /></svg>