<?xml version="1.0" encoding="UTF-8" standalone="no"?>
<!-- Generator: Adobe Illustrator 19.0.0, SVG Export Plug-In . SVG Version: 6.00 Build 0)  -->

<svg
   xmlns:dc="http://purl.org/dc/elements/1.1/"
   xmlns:cc="http://creativecommons.org/ns#"
   xmlns:rdf="http://www.w3.org/1999/02/22-rdf-syntax-ns#"
   xmlns:svg="http://www.w3.org/2000/svg"
   xmlns="http://www.w3.org/2000/svg"
   xmlns:sodipodi="http://sodipodi.sourceforge.net/DTD/sodipodi-0.dtd"
   xmlns:inkscape="http://www.inkscape.org/namespaces/inkscape"
   version="1.1"
   id="Capa_1"
   x="0px"
   y="0px"
   viewBox="0 0 490.667 490.667"
   style="enable-background:new 0 0 490.667 490.667;"
   xml:space="preserve"
   sodipodi:docname="006-info.svg"
   inkscape:version="0.92.2 (5c3e80d, 2017-08-06)"><metadata
     id="metadata4766"><rdf:RDF><cc:Work
         rdf:about=""><dc:format>image/svg+xml</dc:format><dc:type
           rdf:resource="http://purl.org/dc/dcmitype/StillImage" /><dc:title></dc:title></cc:Work></rdf:RDF></metadata><defs
     id="defs4764" /><sodipodi:namedview
     pagecolor="#ffffff"
     bordercolor="#666666"
     borderopacity="1"
     objecttolerance="10"
     gridtolerance="10"
     guidetolerance="10"
     inkscape:pageopacity="0"
     inkscape:pageshadow="2"
     inkscape:window-width="1920"
     inkscape:window-height="986"
     id="namedview4762"
     showgrid="false"
     inkscape:zoom="0.48097794"
     inkscape:cx="245.3335"
     inkscape:cy="245.3335"
     inkscape:window-x="-11"
     inkscape:window-y="-11"
     inkscape:window-maximized="1"
     inkscape:current-layer="Capa_1" /><g
     id="g4717"><g
       id="g4715"><path
         d="M245.333,0C110.059,0,0,110.059,0,245.333s110.059,245.333,245.333,245.333s245.333-110.059,245.333-245.333    S380.608,0,245.333,0z M245.333,469.333c-123.52,0-224-100.48-224-224s100.48-224,224-224s224,100.48,224,224    S368.853,469.333,245.333,469.333z"
         id="path4713"
         style="fill:#ffffff" /></g></g><g
     id="g4723"><g
       id="g4721"><path
         d="M245.333,106.667c-41.173,0-74.667,33.493-74.667,74.667v21.333c0,5.888,4.779,10.667,10.667,10.667    S192,208.555,192,202.667v-21.333C192,151.936,215.915,128,245.333,128c29.419,0,53.333,23.936,53.333,53.333v16.149    c0,14.251-5.547,27.648-15.637,37.739l-26.496,26.496c-14.101,14.123-21.867,32.853-21.867,52.8v16.149    c0,5.888,4.779,10.667,10.667,10.667S256,336.555,256,330.667v-16.149c0-14.251,5.547-27.648,15.637-37.739l26.496-26.496    C312.235,236.16,320,217.429,320,197.483v-16.149C320,140.16,286.507,106.667,245.333,106.667z"
         id="path4719"
         style="fill:#ffffff" /></g></g><g
     id="g4729"><g
       id="g4727"><path
         d="M245.333,362.667C233.557,362.667,224,372.245,224,384c0,11.755,9.557,21.333,21.333,21.333s21.333-9.579,21.333-21.333    C266.667,372.245,257.109,362.667,245.333,362.667z"
         id="path4725"
         style="fill:#ffffff" /></g></g><g
     id="g4731" /><g
     id="g4733" /><g
     id="g4735" /><g
     id="g4737" /><g
     id="g4739" /><g
     id="g4741" /><g
     id="g4743" /><g
     id="g4745" /><g
     id="g4747" /><g
     id="g4749" /><g
     id="g4751" /><g
     id="g4753" /><g
     id="g4755" /><g
     id="g4757" /><g
     id="g4759" /></svg>