<svg width="580" height="400" xmlns="http://www.w3.org/2000/svg" xmlns:xlink="http://www.w3.org/1999/xlink">
 <!-- Created with Method Draw - http://github.com/duopixel/Method-Draw/ -->
 <defs>
  <linearGradient x1="NaN" y1="50%" x2="NaN" y2="50%" id="svg_222">
   <stop stop-color="#FFFFAB" stop-opacity="0.670488" offset="0%"/>
   <stop stop-color="#FFEF72" stop-opacity="0" offset="100%"/>
  </linearGradient>
  <linearGradient x1="100%" y1="50%" x2="-2.48949813e-15%" y2="50%" id="svg_218">
   <stop stop-color="#FFFFAB" stop-opacity="0.670488" offset="0%"/>
   <stop stop-color="#FFEF72" stop-opacity="0" offset="100%"/>
  </linearGradient>
 </defs>
 <g>
  <title>background</title>
  <rect x="-1" y="-1" width="582" height="402" id="canvas_background" fill="#fff"/>
  <g id="canvasGrid" display="none">
   <rect id="svg_1" width="100%" height="100%" x="0" y="0" stroke-width="0" fill="url(#gridpattern)"/>
  </g>
 </g>
 <g>
  <title>Layer 1</title>
  <!-- Generator: sketchtool 39.1 (31720) - http://www.bohemiancoding.com/sketch -->
  <desc>Created with sketchtool.</desc>
  <defs>
   <polygon id="svg_91" points="15.1803805 0 76.5849653 0 92.2647108 211.971254 0.110068003 211.971254"/>
   <rect id="svg_84" x="0.198186" y="0.100299" width="60.620804" height="47.180153"/>
   <polygon id="svg_75" points="5.43744602 51.3191917 42.7805818 26.4133579 80.1237195 51.3191917 80.1237195 64.5881397 5.43744602 64.5881397"/>
   <polygon id="svg_72" points="5.6267012 51.5689369 42.7273904 51.5689369 80.3129747 51.5689369 80.3129747 64.8378849 5.6267012 64.8378849"/>
   <rect id="svg_69" x="41.52313" y="0.585994" width="2.514905" height="26.802204" rx="1.257453"/>
   <rect id="svg_65" x="87.875935" y="100.44239" width="97.654997" height="9.508327" rx="4.754164"/>
   <rect id="svg_57" x="0" y="0" width="21.376694" height="33.960032" rx="10.688347"/>
  </defs>
  <rect fill="#4c596d" stroke-width="0" x="-22.50002" y="325" width="607.000017" height="81.000005" id="svg_117" stroke="#000"/>
  <rect fill="#d3eaff" stroke="#000" stroke-width="0" stroke-opacity="null" x="-1.5" y="1" width="583" height="325" id="svg_118"/>
  <!-- Generator: sketchtool 39.1 (31720) - http://www.bohemiancoding.com/sketch -->
  <desc>Created with sketchtool.</desc>
  <defs>
   <polygon id="svg_211" points="15.1803805 0 76.5849653 0 92.2647108 211.971254 0.110068003 211.971254"/>
   <rect id="svg_204" x="0.198186" y="0.100299" width="60.620804" height="47.180153"/>
   <polygon id="svg_195" points="5.43744602 51.3191917 42.7805818 26.4133579 80.1237195 51.3191917 80.1237195 64.5881397 5.43744602 64.5881397"/>
   <filter x="-50%" y="-50%" width="200%" height="200%" filterUnits="objectBoundingBox" id="svg_194"/>
   <polygon id="svg_192" points="5.6267012 51.5689369 42.7273904 51.5689369 80.3129747 51.5689369 80.3129747 64.8378849 5.6267012 64.8378849"/>
   <filter x="-50%" y="-50%" width="200%" height="200%" filterUnits="objectBoundingBox" id="svg_191"/>
   <rect id="svg_189" x="41.52313" y="0.585994" width="2.514905" height="26.802204" rx="1.257453"/>
   <filter x="-50%" y="-50%" width="200%" height="200%" filterUnits="objectBoundingBox" id="svg_188"/>
   <rect id="svg_185" x="87.875935" y="100.44239" width="97.654997" height="9.508327" rx="4.754164"/>
   <filter x="-50%" y="-50%" width="200%" height="200%" filterUnits="objectBoundingBox" id="svg_184"/>
   <rect id="svg_177" x="0" y="0" width="21.376694" height="33.960032" rx="10.688347"/>
  </defs>
  <g id="svg_236" stroke="null">
   <g id="svg_167" fill="none" fill-rule="evenodd" transform="matrix(0.46672448292533497,0,0,0.46672448292533497,-1358.9123300002534,-843.5481441101585) ">
    <g id="svg_168" stroke="null">
     <g id="svg_169" stroke="null">
      <g id="svg_216" stroke="null">
       <g id="svg_220" opacity="0.05" stroke="null">
        <ellipse fill="#FFCD72" cx="3925.794983" cy="2208.843431" rx="176.672087" ry="176.717942" id="svg_223" stroke="null"/>
        <ellipse fill="#FFF072" cx="3925.166256" cy="2208.214542" rx="105.276504" ry="105.303829" id="svg_224" stroke="null"/>
       </g>
       <polygon id="svg_219" fill="url(#svg_218)" opacity="0.5" points="3690.899888753891,2150.8349609375 3904.666734457016,2203.5703125 3904.666734457016,2220.311767578125 3904.666734457016,2237.890380859375 3690.899888753891,2289.78857421875 " stroke="null"/>
       <polygon id="svg_217" fill="url(#svg_222)" opacity="0.5" points="4154.899888753891,2150.505126953125 3941.132798910141,2203.240478515625 3941.132798910141,2219.98193359375 3941.132798910141,2237.560302734375 4154.899888753891,2289.458740234375 " stroke="null"/>
      </g>
      <g id="svg_170" stroke="null">
       <g id="svg_214" transform="rotate(-10 3789.217529296872,2138.5869140625) translate(33.7841796875,294.0948486328125) " fill="#443642" stroke="null">
        <path d="m3869.790414,2182.001708c0,-23.92483 -17.87464,-43.31973 -39.92412,-43.31973c-22.04948,0 -39.92412,19.3949 -39.92412,43.31973c25.4031,0 39.92412,0 79.84824,0z" id="svg_215" stroke="null"/>
       </g>
       <g id="svg_182" stroke="null">
        <path d="m4045.004686,2506.26942c0,-40.98447 -51.51273,-74.20895 -115.05691,-74.20895c-63.54418,0 -115.05691,33.22448 -115.05691,74.20895c73.20892,0 115.05691,0 230.11382,0z" id="svg_213" fill="#4C3C4A" stroke="null"/>
        <path d="m3875.248596,2506.26942c0,-21.72872 -19.14135,-39.34332 -42.75339,-39.34332c-23.61205,0 -42.75339,17.6146 -42.75339,39.34332c27.20331,0 42.75339,0 85.50678,0z" id="svg_212" fill="#4D3C4A" stroke="null"/>
        <g id="svg_205" stroke="null">
         <g id="svg_206" stroke="null">
          <mask transform="translate(-2.142591714859009,2.2737367544323206e-13) translate(-2.142591714859009,2.2737367544323206e-13) translate(-2.142591714859009,2.2737367544323206e-13) translate(-2.142591714859009,2.2737367544323206e-13) translate(-2.142591714859009,2.2737367544323206e-13) translate(-2.142591714859009,2.2737367544323206e-13) translate(-2.142591714859009,2.2737367544323206e-13) translate(-2.142591714859009,2.2737367544323206e-13) translate(-2.142591714859009,2.2737367544323206e-13) translate(-2.142591714859009,2.2737367544323206e-13) translate(-2.142591714859009,2.2737367544323206e-13) translate(-2.142591714859009,2.2737367544323206e-13) translate(-2.142591714859009,2.2737367544323206e-13) translate(-2.142591714859009,2.2737367544323206e-13) translate(-2.142591714859009,2.2737367544323206e-13) translate(-2.142591714859009,2.2737367544323206e-13) translate(-2.142591714859009,2.2737367544323206e-13) translate(-2.142591714859009,2.2737367544323206e-13) translate(-2.142591714859009,2.2737367544323206e-13) translate(-2.142591714859009,2.2737367544323206e-13) translate(-2.142591714859009,2.2737367544323206e-13) translate(-2.142591714859009,2.2737367544323206e-13) translate(-2.142591714859009,2.2737367544323206e-13) translate(-2.142591714859009,2.2737367544323206e-13) translate(-2.142591714859009,2.2737367544323206e-13) translate(-2.142591714859009,2.2737367544323206e-13) translate(-2.142591714859009,2.2737367544323206e-13) translate(-2.142591714859009,2.2737367544323206e-13) translate(-2.142591714859009,2.2737367544323206e-13) translate(-2.142591714859009,2.2737367544323206e-13) translate(-2.142591714859009,2.2737367544323206e-13) translate(-2.142591714859009,2.2737367544323206e-13) translate(-2.142591714859009,2.2737367544323206e-13) translate(-2.142591714859009,2.2737367544323206e-13) translate(-2.142591714859009,2.2737367544323206e-13) translate(-2.142591714859009,2.2737367544323206e-13) translate(-2.142591714859009,2.2737367544323206e-13) translate(-2.142591714859009,2.2737367544323206e-13) translate(-2.142591714859009,2.2737367544323206e-13) translate(-2.142591714859009,2.2737367544323206e-13) translate(-2.142591714859009,2.2737367544323206e-13) translate(-2.142591714859009,2.2737367544323206e-13) translate(-2.142591714859009,2.2737367544323206e-13) translate(-2.142591714859009,2.2737367544323206e-13) translate(-2.142591714859009,2.2737367544323206e-13) translate(-2.142591714859009,2.2737367544323206e-13) translate(-2.142591714859009,2.2737367544323206e-13) translate(-2.142591714859009,2.2737367544323206e-13) translate(-2.142591714859009,2.2737367544323206e-13) translate(-2.142591714859009,2.2737367544323206e-13) translate(-2.142591714859009,2.2737367544323206e-13) translate(-2.142591714859009,2.2737367544323206e-13) translate(-2.142591714859009,2.2737367544323206e-13) translate(-2.142591714859009,2.2737367544323206e-13) translate(-2.142591714859009,2.2737367544323206e-13) " id="svg_208">
           <use xlink:href="#svg_211" id="svg_225" stroke="null"/>
          </mask>
          <use id="svg_210" fill="#FEFEFE" xlink:href="#svg_211" y="2251.728694" x="3834.011215" stroke="null"/>
          <path d="m3919.069926,2336.69678l-77.16522,-28.10678l-2.78073,48.71842l82.03149,32.79124l-2.08554,-53.40288zm7.647,127.41739l-2.08555,-28.10677l-88.28813,-31.85435l-3.15503,59.96112l93.52871,0zm-12.51328,-208.31353l-70.21339,0l0,9.69231l72.29894,25.2961l-2.08555,-34.98841z" id="svg_209" fill="#FF684A" mask="url(#svg_208)" stroke="null"/>
          <polygon id="svg_207" fill-opacity="0.09" fill="#000000" mask="url(#svg_208)" points="3853.420640707016,2256.7373046875 3899.410630941391,2267.043212890625 3904.316392660141,2467.538330078125 3929.346666097641,2467.538330078125 3911.061509847641,2248.305419921875 " stroke="null"/>
         </g>
        </g>
        <g id="svg_200" stroke="null">
         <mask transform="translate(-2.142591714859009,2.2737367544323206e-13) translate(-2.142591714859009,2.2737367544323206e-13) translate(-2.142591714859009,2.2737367544323206e-13) translate(-2.142591714859009,2.2737367544323206e-13) translate(-2.142591714859009,2.2737367544323206e-13) translate(-2.142591714859009,2.2737367544323206e-13) translate(-2.142591714859009,2.2737367544323206e-13) translate(-2.142591714859009,2.2737367544323206e-13) translate(-2.142591714859009,2.2737367544323206e-13) translate(-2.142591714859009,2.2737367544323206e-13) translate(-2.142591714859009,2.2737367544323206e-13) translate(-2.142591714859009,2.2737367544323206e-13) translate(-2.142591714859009,2.2737367544323206e-13) translate(-2.142591714859009,2.2737367544323206e-13) translate(-2.142591714859009,2.2737367544323206e-13) translate(-2.142591714859009,2.2737367544323206e-13) translate(-2.142591714859009,2.2737367544323206e-13) translate(-2.142591714859009,2.2737367544323206e-13) translate(-2.142591714859009,2.2737367544323206e-13) translate(-2.142591714859009,2.2737367544323206e-13) translate(-2.142591714859009,2.2737367544323206e-13) translate(-2.142591714859009,2.2737367544323206e-13) translate(-2.142591714859009,2.2737367544323206e-13) translate(-2.142591714859009,2.2737367544323206e-13) translate(-2.142591714859009,2.2737367544323206e-13) translate(-2.142591714859009,2.2737367544323206e-13) translate(-2.142591714859009,2.2737367544323206e-13) translate(-2.142591714859009,2.2737367544323206e-13) translate(-2.142591714859009,2.2737367544323206e-13) translate(-2.142591714859009,2.2737367544323206e-13) translate(-2.142591714859009,2.2737367544323206e-13) translate(-2.142591714859009,2.2737367544323206e-13) translate(-2.142591714859009,2.2737367544323206e-13) translate(-2.142591714859009,2.2737367544323206e-13) translate(-2.142591714859009,2.2737367544323206e-13) translate(-2.142591714859009,2.2737367544323206e-13) translate(-2.142591714859009,2.2737367544323206e-13) translate(-2.142591714859009,2.2737367544323206e-13) translate(-2.142591714859009,2.2737367544323206e-13) translate(-2.142591714859009,2.2737367544323206e-13) translate(-2.142591714859009,2.2737367544323206e-13) translate(-2.142591714859009,2.2737367544323206e-13) translate(-2.142591714859009,2.2737367544323206e-13) translate(-2.142591714859009,2.2737367544323206e-13) translate(-2.142591714859009,2.2737367544323206e-13) translate(-2.142591714859009,2.2737367544323206e-13) translate(-2.142591714859009,2.2737367544323206e-13) translate(-2.142591714859009,2.2737367544323206e-13) translate(-2.142591714859009,2.2737367544323206e-13) translate(-2.142591714859009,2.2737367544323206e-13) translate(-2.142591714859009,2.2737367544323206e-13) translate(-2.142591714859009,2.2737367544323206e-13) translate(-2.142591714859009,2.2737367544323206e-13) translate(-2.142591714859009,2.2737367544323206e-13) translate(-2.142591714859009,2.2737367544323206e-13) " id="svg_202">
          <use xlink:href="#svg_204" id="svg_226" stroke="null"/>
         </mask>
         <use id="svg_203" fill="#FFCD72" xlink:href="#svg_204" y="2199.968879" x="3848.823921" stroke="null"/>
         <polygon id="svg_201" fill-opacity="0.09" fill="#000000" mask="url(#svg_202)" points="3849.022935628891,2212.01806640625 3902.016099691391,2218.935791015625 3902.016099691391,2247.13232421875 3911.742418050766,2247.13232421875 3915.440904378891,2206.35791015625 " stroke="null"/>
        </g>
        <path d="m3864.887886,2513.91553c0,-12.69824 -11.18618,-22.9922 -24.98504,-22.9922c-13.79885,0 -24.98503,10.29396 -24.98503,22.9922c15.89759,0 24.98503,0 49.97007,0z" id="svg_199" fill="#574454" stroke="null"/>
        <path d="m4018.297096,2513.91553c0,-12.69824 -11.18618,-22.9922 -24.98503,-22.9922c-13.79886,0 -24.98504,10.29396 -24.98504,22.9922c15.89759,0 24.98504,0 49.97007,0z" id="rock" fill="#574454" stroke="null"/>
        <g id="svg_186" stroke="null">
         <g id="svg_196" stroke-width="2.873" stroke-linecap="round" stroke-linejoin="round" stroke="#443642">
          <path d="m3836.759826,2251.40269l0,-16.38397" id="svg_198" stroke="null"/>
          <path d="m3836.759826,2238.39718l83.86165,0" id="svg_197" stroke="null"/>
          <path d="m3865.115026,2251.40269l0,-16.38397" id="Path-2" stroke="null"/>
          <path d="m3892.660066,2251.40269l0,-16.38397" id="Path-2" stroke="null"/>
          <path d="m3921.015266,2251.40269l0,-16.38397" id="Path-2" stroke="null"/>
         </g>
         <g id="svg_193" stroke="null">
          <use fill="#FF684A" fill-rule="evenodd" xlink:href="#svg_195" y="2146.291896" x="3835.607437" id="svg_227" stroke="null"/>
          <use fill="black" filter="url(#svg_194)" xlink:href="#svg_195" y="2146.291896" x="3835.607437" id="svg_228" stroke="null"/>
         </g>
         <g id="svg_190" stroke="null">
          <use fill="#E35D42" fill-rule="evenodd" xlink:href="#svg_192" y="2146.291896" x="3835.607437" id="svg_229" stroke="null"/>
          <use fill="black" filter="url(#svg_191)" xlink:href="#svg_192" y="2146.291896" x="3835.607437" id="svg_230" stroke="null"/>
         </g>
         <g id="svg_187" stroke="null">
          <use fill="#443642" fill-rule="evenodd" xlink:href="#svg_189" y="2146.291896" x="3835.607437" id="svg_231" stroke="null"/>
          <use fill="black" filter="url(#svg_188)" xlink:href="#svg_189" y="2146.291896" x="3835.607437" id="svg_232" stroke="null"/>
         </g>
        </g>
        <g id="svg_183" stroke="null">
         <use fill="#E7E7E7" fill-rule="evenodd" xlink:href="#svg_185" y="2146.291896" x="3743.243019" id="svg_233" stroke="null"/>
         <use fill="black" filter="url(#svg_184)" xlink:href="#svg_185" y="2146.291896" x="3743.243019" id="svg_234" stroke="null"/>
        </g>
       </g>
       <g id="svg_172" stroke="null">
        <polygon id="svg_181" fill="#D02716" points="3914.753404378891,2419.4169921875 3937.387437582016,2396.777099609375 3960.021714925766,2419.4169921875 3960.021714925766,2464.697265625 3914.753404378891,2464.697265625 " stroke="null"/>
        <rect id="svg_180" fill="#E85E43" x="3878.286563" y="2419.417185" width="38.98103" height="45.280042" stroke="null"/>
        <polygon id="Rectangle-7" fill="#E7E7E7" points="3902.088609457016,2396.777099609375 3937.387437582016,2396.777099609375 3914.753404378891,2419.4169921875 3878.287339925766,2419.4169921875 " stroke="null"/>
        <rect id="svg_179" fill="#443642" x="3889.603636" y="2429.479416" width="11.317073" height="18.866684" rx="5.658537" stroke="null"/>
        <path d="m3914.752686,2419.41718l22.63415,-22.64002l22.63415,22.64002l0,45.28004l-45.2683,0l0,-45.28004zm12.57453,22.00692c0,-5.90222 4.78404,-10.68691 10.68835,-10.68691c5.90301,0 10.68834,4.79362 10.68834,10.68691l0,23.27312l-21.37669,0l0,-23.27312z" id="svg_178" fill="#D4563D" stroke="null"/>
        <g id="svg_173" stroke="null">
         <mask transform="translate(-2.142591714859009,2.2737367544323206e-13) translate(-2.142591714859009,2.2737367544323206e-13) translate(-2.142591714859009,2.2737367544323206e-13) translate(-2.142591714859009,2.2737367544323206e-13) translate(-2.142591714859009,2.2737367544323206e-13) translate(-2.142591714859009,2.2737367544323206e-13) translate(-2.142591714859009,2.2737367544323206e-13) translate(-2.142591714859009,2.2737367544323206e-13) translate(-2.142591714859009,2.2737367544323206e-13) translate(-2.142591714859009,2.2737367544323206e-13) translate(-2.142591714859009,2.2737367544323206e-13) translate(-2.142591714859009,2.2737367544323206e-13) translate(-2.142591714859009,2.2737367544323206e-13) translate(-2.142591714859009,2.2737367544323206e-13) translate(-2.142591714859009,2.2737367544323206e-13) translate(-2.142591714859009,2.2737367544323206e-13) translate(-2.142591714859009,2.2737367544323206e-13) translate(-2.142591714859009,2.2737367544323206e-13) translate(-2.142591714859009,2.2737367544323206e-13) translate(-2.142591714859009,2.2737367544323206e-13) translate(-2.142591714859009,2.2737367544323206e-13) translate(-2.142591714859009,2.2737367544323206e-13) translate(-2.142591714859009,2.2737367544323206e-13) translate(-2.142591714859009,2.2737367544323206e-13) translate(-2.142591714859009,2.2737367544323206e-13) translate(-2.142591714859009,2.2737367544323206e-13) translate(-2.142591714859009,2.2737367544323206e-13) translate(-2.142591714859009,2.2737367544323206e-13) translate(-2.142591714859009,2.2737367544323206e-13) translate(-2.142591714859009,2.2737367544323206e-13) translate(-2.142591714859009,2.2737367544323206e-13) translate(-2.142591714859009,2.2737367544323206e-13) translate(-2.142591714859009,2.2737367544323206e-13) translate(-2.142591714859009,2.2737367544323206e-13) translate(-2.142591714859009,2.2737367544323206e-13) translate(-2.142591714859009,2.2737367544323206e-13) translate(-2.142591714859009,2.2737367544323206e-13) translate(-2.142591714859009,2.2737367544323206e-13) translate(-2.142591714859009,2.2737367544323206e-13) translate(-2.142591714859009,2.2737367544323206e-13) translate(-2.142591714859009,2.2737367544323206e-13) translate(-2.142591714859009,2.2737367544323206e-13) translate(-2.142591714859009,2.2737367544323206e-13) translate(-2.142591714859009,2.2737367544323206e-13) translate(-2.142591714859009,2.2737367544323206e-13) translate(-2.142591714859009,2.2737367544323206e-13) translate(-2.142591714859009,2.2737367544323206e-13) translate(-2.142591714859009,2.2737367544323206e-13) translate(-2.142591714859009,2.2737367544323206e-13) translate(-2.142591714859009,2.2737367544323206e-13) translate(-2.142591714859009,2.2737367544323206e-13) translate(-2.142591714859009,2.2737367544323206e-13) translate(-2.142591714859009,2.2737367544323206e-13) translate(-2.142591714859009,2.2737367544323206e-13) translate(-2.142591714859009,2.2737367544323206e-13) " id="svg_175">
          <use xlink:href="#svg_177" id="svg_235" stroke="null"/>
         </mask>
         <use id="svg_176" fill="#443642" xlink:href="#svg_177" y="2430.737197" x="3927.327213" stroke="null"/>
         <polygon id="svg_174" fill="#4D3C4A" mask="url(#svg_175)" points="3926.070543050766,2452.119384765625 3949.962144613266,2465.954833984375 3926.070543050766,2465.954833984375 " stroke="null"/>
        </g>
       </g>
       <rect id="svg_171" fill="#4D3C4A" x="3828.749794" y="2463.252191" width="101.224932" height="2.515558" rx="1.257779" stroke="null"/>
       <rect id="platform" fill="#4D3C4A" x="3943.806705" y="2462.841478" width="19.490515" height="2.515558" rx="1.257779" stroke="null"/>
      </g>
     </g>
    </g>
   </g>
  </g>
 </g>
</svg>